<svg xmlns="http://www.w3.org/2000/svg" viewBox="0 0 800 600" width="800" height="600">
  <rect width="800" height="600" fill="#f6f1e4"/>
  <rect y="400" width="800" height="200" fill="#e7d9bd"/>
  <!-- 体育館の線 -->
  <g stroke="#c9b48a" stroke-width="6" fill="none">
    <path d="M0 470 L800 470"/>
    <path d="M0 540 L800 540"/>
  </g>
  <!-- なわとび -->
  <g fill="none" stroke="#e91e63" stroke-width="14" stroke-linecap="round">
    <path d="M250 470 C 150 380 180 200 400 200 C 620 200 650 380 550 470"/>
  </g>
  <g fill="#3f51b5">
    <rect x="222" y="452" width="52" height="26" rx="13"/>
    <rect x="526" y="452" width="52" height="26" rx="13"/>
  </g>
  <!-- カード -->
  <g>
    <rect x="80" y="120" width="200" height="150" rx="10" fill="#ffffff" stroke="#bdbdbd" stroke-width="4"/>
    <rect x="102" y="150" width="156" height="12" rx="6" fill="#ef9a9a"/>
    <g fill="#cfd8dc">
      <rect x="102" y="180" width="156" height="10" rx="5"/>
      <rect x="102" y="204" width="120" height="10" rx="5"/>
      <rect x="102" y="228" width="140" height="10" rx="5"/>
    </g>
  </g>
  <!-- ストップウォッチ -->
  <g>
    <circle cx="640" cy="180" r="62" fill="#eceff1" stroke="#90a4ae" stroke-width="8"/>
    <rect x="626" y="104" width="28" height="18" rx="6" fill="#90a4ae"/>
    <path d="M640 180 L640 140" stroke="#37474f" stroke-width="7" stroke-linecap="round"/>
    <path d="M640 180 L672 196" stroke="#e53935" stroke-width="6" stroke-linecap="round"/>
  </g>
</svg>
